# xmcd
#
# Track frame offsets: 
#        210
#        14491
#        28242
#        41992
#        56221
#        70372
#        84867
#        97116
#        110564
#        124406
#        139808
#        154235
#        168107
#        181591
#        195890
#        209072
#        221831
#        235242
#        249440
#        262795
#        276985
#        291490
#
# Disc length: 4055 seconds
#
# Revision: 2
# Processed by: cddbd v1.5.2PL0 Copyright (c) Steve Scherf et al.
# Submitted via: ExactAudioCopyFreeDBPlugin 1.0
#
DISCID=530fd516
DTITLE=Grayson and Whitter - Grayson and Whitter Vol. 1 1928-29 Document
DYEAR=2008
DGENRE=Old Time Music
TTITLE0=Noboy's Darling
TTITLE1=I'll Never Be Yours
TTITLE2=Handsome Molly (GEX-905)
TTITLE3=Shout Lula
TTITLE4=You'll Never Miss Your Mother Until She's Gone
TTITLE5=Train No. 45 (GEX-908)
TTITLE6=Handsome Molly (40302)
TTITLE7=He's Coming To Us Dead
TTITLE8=Don't Go Out  Tonight, My Darling
TTITLE9=Rose Conley
TTITLE10=Ommie Wise
TTITLE11=Train 45 (40307)
TTITLE12=Sally Gooden
TTITLE13=My Mind Is To Marry (unissued)
TTITLE14=She's Mine, All Mine
TTITLE15=Sweet Roie O'Grady
TTITLE16=Sweet Rosy O'Grady (unissued)
TTITLE17=Red Or Green
TTITLE18=Cluck Old Hen
TTITLE19=Old Jimmy Sutton
TTITLE20=The Red And Green Signal Lights
TTITLE21=Joking Henry
EXTD=
EXTT0=
EXTT1=
EXTT2=
EXTT3=
EXTT4=
EXTT5=
EXTT6=
EXTT7=
EXTT8=
EXTT9=
EXTT10=
EXTT11=
EXTT12=
EXTT13=
EXTT14=
EXTT15=
EXTT16=
EXTT17=
EXTT18=
EXTT19=
EXTT20=
EXTT21=
PLAYORDER=
